<svg width="42" height="45" viewBox="0 0 42 45" fill="none" xmlns="http://www.w3.org/2000/svg">
<path d="M6.63158 36H11.0526V40.5H37.5789V4.5H11.0526V9H6.63158V2.25C6.63158 1.65326 6.86447 1.08097 7.27903 0.65901C7.69358 0.237053 8.25584 0 8.8421 0H39.7895C40.3757 0 40.938 0.237053 41.3526 0.65901C41.7671 1.08097 42 1.65326 42 2.25V42.75C42 43.3467 41.7671 43.919 41.3526 44.341C40.938 44.7629 40.3757 45 39.7895 45H8.8421C8.25584 45 7.69358 44.7629 7.27903 44.341C6.86447 43.919 6.63158 43.3467 6.63158 42.75V36ZM11.0526 20.25H26.5263V24.75H11.0526V31.5L0 22.5L11.0526 13.5V20.25Z" fill="white"/>
</svg>
