<svg width="1920" height="1080" viewBox="0 0 1920 1080" fill="none" xmlns="http://www.w3.org/2000/svg">
<rect x="0.5" y="0.5" width="1919" height="1079" stroke="black"/>
<path d="M309.837 174.859C288.949 174.859 259.55 243.668 262.377 245.29L262.352 245.314C239.719 273.182 205.167 290.974 166.487 290.974C98.2926 290.974 43 235.681 43 167.487C43 99.2926 98.2926 44 166.487 44C209.468 44 247.337 65.9696 269.429 99.2926L309.837 174.859Z" fill="#EAB932"/>
<path d="M289.974 167.511C289.974 235.706 234.681 290.974 166.487 290.974C155.502 290.974 144.837 289.548 134.687 286.845C114.512 267.407 101.979 240.129 101.979 209.902C101.979 150.85 149.85 103.003 208.878 103.003C239.104 103.003 266.382 115.536 285.845 135.712C288.548 145.861 289.974 156.527 289.974 167.511Z" fill="#FFD039"/>
<path d="M781.179 313.823C779.859 315.386 778.625 317.008 777.473 318.681C775.003 315.03 772.199 311.616 769.012 308.621C753.446 293.989 732.234 286.452 711.146 292.193C717.518 294.638 723.844 296.633 729.786 300.076C738.198 304.952 745.772 311.23 751.672 318.996C755.835 324.474 759.312 330.654 761.551 337.176C763.367 342.467 764.65 348.063 765.028 353.656C765.097 354.658 764.665 357.256 765.193 358.101C765.222 358.148 765.217 358.15 765.237 358.185C765.232 358.426 765.203 358.664 765.2 358.902C765.09 366.803 772.383 373.035 780.208 371.273C786.651 369.823 789.632 364.26 789.676 358.209C790.252 356.784 790.239 351.279 790.451 349.667C792.444 334.611 800.022 321.362 810.7 310.842C815.384 306.227 821.019 302.212 826.845 299.211C832.377 296.36 838.034 294.397 843.841 292.19C820.52 285.685 796.385 295.798 781.179 313.823Z" fill="#666666"/>
<path d="M492.05 185.942C498.906 192.774 503.133 202.235 503.133 212.655C503.133 233.518 486.201 250.426 465.337 250.426H281.373C274.443 250.426 267.93 248.558 262.352 245.314C259.526 243.668 256.946 241.653 254.635 239.367C247.804 232.535 243.577 223.074 243.577 212.655C243.577 191.791 260.484 174.859 281.373 174.859H172.95C162.506 174.859 153.069 170.632 146.237 163.801C139.381 156.969 135.154 147.532 135.154 137.088C135.154 116.224 152.086 99.3171 172.95 99.3171H269.429H356.915C367.359 99.3171 376.795 103.544 383.652 110.376C390.483 117.207 394.71 126.644 394.71 137.088C394.71 157.952 377.803 174.859 356.915 174.859H465.337C475.781 174.859 485.218 179.086 492.05 185.942Z" fill="#3B9DFF"/>
<path d="M219.812 485.958C219.158 487.896 218.605 489.858 218.147 491.837C214.51 489.347 210.649 487.2 206.585 485.583C186.737 477.683 164.238 478.455 146.728 491.532C153.553 491.469 160.169 491.004 166.96 492.027C176.574 493.476 185.923 496.538 194.261 501.597C200.144 505.165 205.646 509.638 210.122 514.884C213.753 519.14 216.999 523.874 219.403 528.939C219.835 529.846 220.386 532.421 221.188 533.014C221.232 533.046 221.228 533.05 221.259 533.075C221.343 533.301 221.403 533.534 221.488 533.756C224.284 541.147 233.356 544.268 239.988 539.758C245.45 536.045 246.182 529.776 244.003 524.131C244.015 522.594 241.984 517.478 241.589 515.901C237.919 501.163 240.108 486.058 246.181 472.354C248.845 466.342 252.613 460.539 256.933 455.61C261.033 450.928 265.575 447.026 270.167 442.843C246.086 445.348 227.345 463.61 219.812 485.958Z" fill="#666666"/>
<path d="M973.523 860.189H946.491V1034.96H973.523V860.189Z" fill="#7C4622"/>
<path d="M770.12 879.554H743.088V1034.96H770.12V879.554Z" fill="#7C4622"/>
<path d="M579.004 905.677H551.972V1034.96H579.004V905.677Z" fill="#7C4622"/>
<path d="M1176.9 879.554H1149.87V1034.96H1176.9V879.554Z" fill="#7C4622"/>
<path d="M1368.04 905.677H1341.01V1034.96H1368.04V905.677Z" fill="#7C4622"/>
<path d="M1354.53 916.293C1322.16 916.293 1295.94 908.552 1295.94 865.866C1295.94 823.18 1322.16 739.258 1354.53 739.258C1386.87 739.258 1413.09 823.18 1413.09 865.866C1413.09 908.552 1386.87 916.293 1354.53 916.293Z" fill="#0FBC30"/>
<path d="M1163.39 896.781C1124.51 896.781 1092.98 887.492 1092.98 836.156C1092.98 784.844 1124.51 683.966 1163.39 683.966C1202.29 683.966 1233.82 784.844 1233.82 836.156C1233.82 887.492 1202.29 896.781 1163.39 896.781Z" fill="#0FBC30"/>
<path d="M960.007 643C1003.73 643 1039.19 756.436 1039.19 814.161C1039.19 871.862 1003.73 882.306 960.007 882.306C916.265 882.306 880.804 871.862 880.804 814.161C880.804 756.436 916.265 643 960.007 643Z" fill="#0FBC30"/>
<path d="M756.604 896.781C717.703 896.781 686.174 887.492 686.174 836.156C686.174 784.844 717.703 683.966 756.604 683.966C795.506 683.966 827.035 784.844 827.035 836.156C827.035 887.492 795.506 896.781 756.604 896.781Z" fill="#0FBC30"/>
<path d="M565.488 916.293C533.124 916.293 506.903 908.552 506.903 865.866C506.903 823.18 533.124 739.258 565.488 739.258C597.828 739.258 624.074 823.18 624.074 865.866C624.074 908.552 597.828 916.293 565.488 916.293Z" fill="#0FBC30"/>
<path d="M1368.04 905.677V940.302C1363.72 940.695 1359.17 940.867 1354.53 940.867C1349.88 940.867 1345.34 940.695 1341.01 940.302V905.677H1368.04Z" fill="#562F15"/>
<path d="M1176.9 879.554V920.913C1172.53 921.233 1168.01 921.355 1163.39 921.355C1158.77 921.355 1154.24 921.233 1149.87 920.913V879.554H1176.9Z" fill="#562F15"/>
<path d="M973.523 860.189V906.488C969.149 906.758 964.627 906.881 960.007 906.881C955.387 906.881 950.89 906.758 946.491 906.488V860.189H973.523Z" fill="#562F15"/>
<path d="M770.12 879.554V920.913C765.746 921.233 761.224 921.355 756.604 921.355C751.984 921.355 747.463 921.233 743.088 920.913V879.554H770.12Z" fill="#562F15"/>
<path d="M579.004 905.677V940.302C574.679 940.695 570.133 940.867 565.488 940.867C560.844 940.867 556.298 940.695 551.972 940.302V905.677H579.004Z" fill="#562F15"/>
<path d="M1413.09 865.866C1413.09 908.552 1386.87 916.293 1354.53 916.293C1322.16 916.293 1295.94 908.552 1295.94 865.866C1295.94 864.662 1295.97 863.433 1296.01 862.18C1297.49 862.204 1298.96 862.229 1300.46 862.229C1332.8 862.229 1359.02 854.488 1359.02 811.802C1359.02 792.855 1353.86 765.799 1345.29 741.544C1348.31 740.045 1351.38 739.258 1354.53 739.258C1386.87 739.258 1413.09 823.18 1413.09 865.866Z" fill="#07A521"/>
<path d="M1233.82 836.156C1233.82 887.492 1202.29 896.781 1163.39 896.781C1126.03 896.781 1095.49 888.205 1093.13 842.029C1098.31 842.521 1103.74 842.717 1109.32 842.717C1148.22 842.717 1179.75 833.428 1179.75 782.092C1179.75 755.846 1171.5 716.601 1158.23 684.556C1159.92 684.162 1161.64 683.966 1163.39 683.966C1202.29 683.966 1233.82 784.844 1233.82 836.156Z" fill="#07A521"/>
<path d="M1039.19 814.161C1039.19 871.862 1003.73 882.306 960.007 882.306C919.656 882.306 886.358 873.41 881.443 826.744C889.159 827.849 897.391 828.243 905.943 828.243C949.661 828.243 985.122 817.798 985.122 760.097C985.122 728.544 974.531 680.329 957.746 643.098C958.484 643.025 959.245 643 960.007 643C1003.73 643 1039.19 756.436 1039.19 814.161Z" fill="#07A521"/>
<path d="M827.035 836.156C827.035 887.492 795.506 896.781 756.604 896.781C719.227 896.781 688.68 888.205 686.321 842.029C691.531 842.521 696.962 842.717 702.54 842.717C741.442 842.717 772.971 833.428 772.971 782.092C772.971 755.846 764.714 716.601 751.444 684.556C753.139 684.162 754.86 683.966 756.604 683.966C795.506 683.966 827.035 784.844 827.035 836.156Z" fill="#07A521"/>
<path d="M624.074 865.866C624.074 908.552 597.828 916.293 565.488 916.293C533.124 916.293 506.903 908.552 506.903 865.866C506.903 864.662 506.927 863.433 506.977 862.18C508.451 862.204 509.925 862.229 511.425 862.229C543.765 862.229 570.01 854.488 570.01 811.802C570.01 792.855 564.825 765.774 556.273 741.519C559.271 740.045 562.343 739.258 565.488 739.258C597.828 739.258 624.074 823.18 624.074 865.866Z" fill="#07A521"/>
<path d="M1920 1080H0C0 1069.05 4.93674 1058.77 13.6307 1049.8C18.7421 1044.51 25.1643 1039.69 32.6349 1035.46C52.7751 1024.04 80.648 1017 111.404 1017H1808.6C1850.75 1017 1887.45 1030.25 1906.37 1049.8C1915.06 1058.77 1920 1069.05 1920 1080Z" fill="#0FBC30"/>
<path d="M1920 1080H0C0 1069.12 4.93674 1058.91 13.6307 1050H1906.37C1915.06 1058.91 1920 1069.12 1920 1080Z" fill="#07A521"/>
</svg>
