<svg width="43" height="43" viewBox="0 0 43 43" fill="none" xmlns="http://www.w3.org/2000/svg">
<path d="M18.8464 43C17.8301 43 16.9553 42.6775 16.2221 42.0325C15.4889 41.3875 15.0462 40.5992 14.8942 39.6675L14.386 36.12C13.8967 35.9408 13.436 35.7258 13.0039 35.475C12.5718 35.2242 12.148 34.9554 11.7324 34.6688L8.23188 36.0663C7.29088 36.4604 6.34988 36.4963 5.40888 36.1738C4.46787 35.8513 3.73389 35.2779 3.20693 34.4538L0.553308 30.0463C0.0263477 29.2221 -0.124212 28.3442 0.101628 27.4125C0.327469 26.4808 0.835609 25.7104 1.62605 25.1013L4.61843 22.9513C4.58079 22.7004 4.56197 22.4582 4.56197 22.2246V20.7733C4.56197 20.5411 4.58079 20.2996 4.61843 20.0488L1.62605 17.8988C0.835609 17.2896 0.327469 16.5192 0.101628 15.5875C-0.124212 14.6558 0.0263477 13.7779 0.553308 12.9537L3.20693 8.54625C3.73389 7.72208 4.46787 7.14875 5.40888 6.82625C6.34988 6.50375 7.29088 6.53958 8.23188 6.93375L11.7324 8.33125C12.1464 8.04458 12.5793 7.77583 13.031 7.525C13.4827 7.27417 13.9343 7.05917 14.386 6.88L14.8942 3.3325C15.0447 2.40083 15.4874 1.6125 16.2221 0.9675C16.9568 0.3225 17.8316 0 18.8464 0H24.1536C25.1699 0 26.0454 0.3225 26.7801 0.9675C27.5149 1.6125 27.9568 2.40083 28.1058 3.3325L28.614 6.88C29.1033 7.05917 29.5648 7.27417 29.9984 7.525C30.432 7.77583 30.8551 8.04458 31.2676 8.33125L34.7681 6.93375C35.7091 6.53958 36.6501 6.50375 37.5911 6.82625C38.5321 7.14875 39.2661 7.72208 39.7931 8.54625L42.4467 12.9537C42.9737 13.7779 43.1242 14.6558 42.8984 15.5875C42.6725 16.5192 42.1644 17.2896 41.3739 17.8988L38.3816 20.0488C38.4192 20.2996 38.438 20.5418 38.438 20.7755V22.2246C38.438 22.4582 38.4004 22.7004 38.3251 22.9513L41.3175 25.1013C42.1079 25.7104 42.6161 26.4808 42.8419 27.4125C43.0678 28.3442 42.9172 29.2221 42.3902 30.0463L39.6801 34.4538C39.1532 35.2779 38.4192 35.8513 37.4782 36.1738C36.5372 36.4963 35.5962 36.4604 34.6552 36.0663L31.2676 34.6688C30.8536 34.9554 30.4207 35.2242 29.969 35.475C29.5173 35.7258 29.0656 35.9408 28.614 36.12L28.1058 39.6675C27.9553 40.5992 27.5134 41.3875 26.7801 42.0325C26.0469 42.6775 25.1714 43 24.1536 43H18.8464ZM21.6129 29.025C23.796 29.025 25.6592 28.2904 27.2025 26.8213C28.7457 25.3521 29.5173 23.5783 29.5173 21.5C29.5173 19.4217 28.7457 17.6479 27.2025 16.1787C25.6592 14.7096 23.796 13.975 21.6129 13.975C19.3922 13.975 17.5192 14.7096 15.994 16.1787C14.4688 17.6479 13.707 19.4217 13.7085 21.5C13.71 23.5783 14.4726 25.3521 15.9963 26.8213C17.5199 28.2904 19.3922 29.025 21.6129 29.025Z" fill="#FFFCFC"/>
</svg>
